<svg aria-hidden="true" style="position: absolute; width: 0; height: 0; overflow: hidden;" version="1.1" xmlns="http://www.w3.org/2000/svg" xmlns:xlink="http://www.w3.org/1999/xlink">
<defs>
<symbol id="rain" viewBox="0 0 32 32">
<path fill="#b7e4f8" style="fill: var(--color1, #b7e4f8)" d="M27.967 13.092c0.022-0.208 0.033-0.417 0.033-0.626 0-3.308-2.692-6-6-6-0.346 0-0.689 0.029-1.028 0.088-0.552-1.312-1.44-2.445-2.599-3.308-1.388-1.034-3.039-1.58-4.774-1.58-4.411 0-8 3.589-8 8 0 0.3 0.017 0.601 0.050 0.898-1.419 0.241-2.723 0.925-3.74 1.977-1.232 1.274-1.911 2.952-1.911 4.725 0 3.75 3.051 6.8 6.8 6.8h19.6c3.088 0 5.6-2.512 5.6-5.6 0-2.505-1.685-4.687-4.033-5.374z"></path>
<path fill="#93d6f4" style="fill: var(--color2, #93d6f4)" d="M27.967 13.092c0.022-0.208 0.033-0.417 0.033-0.626 0-3.308-2.692-6-6-6-0.346 0-0.689 0.029-1.028 0.088-0.552-1.312-1.44-2.445-2.599-3.308-0.727-0.542-1.527-0.948-2.374-1.214v22.034h10.4c3.088 0 5.6-2.512 5.6-5.6 0-2.505-1.685-4.687-4.033-5.374z"></path>
<path fill="#6fc8f1" style="fill: var(--color3, #6fc8f1)" d="M23.774 19.22c-0.927-1.289-1.843-2.312-1.881-2.355l-0.893-0.995-0.893 0.995c-0.038 0.043-0.954 1.066-1.881 2.355-2.026 2.817-2.026 4.043-2.026 4.446 0 2.647 2.153 4.8 4.8 4.8s4.8-2.153 4.8-4.8c0-0.403 0-1.629-2.026-4.446z"></path>
<path fill="#4bbaed" style="fill: var(--color4, #4bbaed)" d="M21 28.467c2.647 0 4.8-2.153 4.8-4.8 0-0.403 0-1.629-2.026-4.446-0.927-1.289-1.843-2.312-1.881-2.355l-0.893-0.995z"></path>
<path fill="#6fc8f1" style="fill: var(--color3, #6fc8f1)" d="M13.174 22.719c-0.729-1.014-1.451-1.82-1.481-1.854l-0.893-0.995-0.893 0.995c-0.030 0.034-0.752 0.84-1.481 1.854-0.698 0.971-1.626 2.401-1.626 3.614 0 2.206 1.794 4 4 4s4-1.794 4-4c0-1.213-0.928-2.643-1.626-3.614z"></path>
<path fill="#4bbaed" style="fill: var(--color4, #4bbaed)" d="M10.8 30.333c2.206 0 4-1.794 4-4 0-1.213-0.928-2.643-1.626-3.614-0.729-1.014-1.451-1.82-1.481-1.854l-0.893-0.995z"></path>
</symbol>
<symbol id="icon-calendar" viewBox="0 0 32 32">
<path d="M11.484 6.072h9.032v-2.636c0-0.432 0.351-0.783 0.783-0.783h3.504c0.432 0 0.782 0.35 0.782 0.783v2.636h1.953c2.265 0 4.116 1.85 4.116 4.116v15.042c0 2.265-1.85 4.116-4.116 4.116h-23.076c-2.265 0-4.116-1.85-4.116-4.116v-15.042c0-2.265 1.85-4.116 4.116-4.116h1.953v-2.636c0-0.432 0.35-0.783 0.783-0.783h3.504c0.432 0 0.783 0.35 0.783 0.783v2.636zM4.675 14.76h2.18v2.18h-2.18v-2.18zM4.675 21.832h2.18v2.179h-2.18v-2.179zM21.020 21.832h2.18v2.179h-2.18v-2.179zM15.572 21.832h2.18v2.179h-2.18v-2.179zM10.124 21.832h2.179v2.179h-2.179v-2.179zM4.675 18.296h2.18v2.18h-2.18v-2.18zM21.020 18.296h2.18v2.18h-2.18v-2.18zM15.572 18.296h2.18v2.18h-2.18v-2.18zM10.124 18.296h2.179v2.18h-2.179v-2.18zM21.020 14.76h2.18v2.18h-2.18v-2.18zM15.572 14.76h2.18v2.18h-2.18v-2.18zM10.124 14.76h2.179v2.18h-2.179v-2.18zM1.911 11.414h23.148c1.030 0 1.030 1.566 0 1.566h-23.148v12.251c0 1.401 1.149 2.55 2.55 2.55h23.076c1.401 0 2.55-1.149 2.55-2.55v-15.042c0-1.401-1.149-2.55-2.55-2.55h-1.953v1.268c0 0.432-0.35 0.783-0.782 0.783h-3.504c-0.432 0-0.783-0.351-0.783-0.783v-1.268h-9.032v1.268c0 0.432-0.35 0.783-0.783 0.783h-3.504c-0.432 0-0.783-0.351-0.783-0.783v-1.268h-1.953c-1.401 0-2.55 1.149-2.55 2.55v1.225zM9.918 4.219h-1.939v3.904h1.939v-3.904zM24.021 4.219h-1.939v3.904h1.939v-3.904z"></path>
</symbol>
<symbol id="clear-day" viewBox="0 0 32 32">
<path fill="#000" style="fill: var(--color5, #000)" d="M14.707 31.889c-0.033 0-0.066-0.004-0.099-0.013-0.169-0.046-0.283-0.202-0.276-0.375l0.029-0.834c0.003-0.098 0.011-0.198 0.019-0.298 0.016-0.186 0.031-0.361 0.004-0.507-0.055-0.306-0.105-0.613-0.154-0.923-0.141-0.891-0.274-1.731-0.565-2.542-0.016-0.043-0.031-0.087-0.046-0.13-0.447 1.6-1.83 2.9-3.168 4.157l-0.215 0.204c-0.128 0.118-0.32 0.137-0.465 0.039-0.146-0.096-0.206-0.279-0.147-0.443l0.286-0.784c0.033-0.094 0.071-0.186 0.111-0.278 0.071-0.171 0.14-0.334 0.16-0.48 0.042-0.307 0.091-0.614 0.139-0.923 0.141-0.892 0.274-1.734 0.247-2.595-0.001-0.045-0.002-0.092-0.003-0.137-0.919 1.381-2.634 2.189-4.291 2.971l-0.273 0.129c-0.159 0.073-0.346 0.031-0.454-0.105-0.109-0.137-0.11-0.329-0.002-0.466l0.514-0.659c0.061-0.078 0.125-0.153 0.19-0.227 0.122-0.142 0.237-0.275 0.301-0.409 0.134-0.281 0.276-0.557 0.417-0.834 0.41-0.805 0.797-1.565 1.038-2.391 0.013-0.044 0.026-0.089 0.039-0.131-1.303 1.031-3.187 1.269-5.009 1.501l-0.291 0.036c-0.175 0.023-0.338-0.078-0.4-0.239-0.062-0.163-0.003-0.348 0.141-0.445l0.692-0.468c0.081-0.054 0.166-0.107 0.252-0.159 0.159-0.097 0.309-0.188 0.412-0.294 0.214-0.225 0.435-0.445 0.655-0.666 0.638-0.638 1.241-1.241 1.724-1.953 0.027-0.037 0.053-0.076 0.080-0.113-1.558 0.576-3.425 0.225-5.23-0.119l-0.288-0.054c-0.171-0.032-0.298-0.177-0.306-0.352-0.009-0.174 0.103-0.331 0.271-0.379l0.716-0.206c0.183-0.053 0.282-0.077 0.381-0.099 0.18-0.042 0.35-0.082 0.479-0.153 0.275-0.148 0.554-0.29 0.833-0.432 0.802-0.41 1.561-0.796 2.239-1.322 0.036-0.029 0.073-0.057 0.11-0.084-1.649 0.075-3.323-0.844-4.931-1.727l-0.26-0.143c-0.153-0.084-0.228-0.261-0.182-0.429 0.046-0.169 0.19-0.314 0.375-0.276l0.835 0.029c0.098 0.003 0.198 0.011 0.298 0.019 0.187 0.016 0.359 0.030 0.507 0.004 0.306-0.055 0.613-0.105 0.922-0.154 0.892-0.142 1.733-0.275 2.543-0.566 0.043-0.016 0.086-0.031 0.13-0.046-1.601-0.448-2.901-1.831-4.159-3.17l-0.202-0.213c-0.119-0.127-0.135-0.32-0.041-0.465 0.093-0.144 0.275-0.204 0.439-0.144l0.784 0.285c0.093 0.033 0.185 0.071 0.276 0.11 0.172 0.073 0.334 0.141 0.481 0.161 0.308 0.042 0.615 0.091 0.923 0.139 0.892 0.141 1.73 0.268 2.594 0.247 0.046-0.001 0.092-0.002 0.139-0.003-1.383-0.919-2.193-2.636-2.975-4.295l-0.128-0.27c-0.075-0.158-0.031-0.346 0.105-0.454 0.137-0.109 0.33-0.11 0.466-0.003l0.659 0.514c0.078 0.061 0.153 0.126 0.228 0.191 0.141 0.122 0.274 0.237 0.407 0.301 0.281 0.134 0.558 0.276 0.835 0.417 0.804 0.41 1.564 0.797 2.39 1.037 0.044 0.013 0.089 0.026 0.132 0.039-1.030-1.302-1.269-3.184-1.501-5.003l-0.037-0.298c-0.021-0.173 0.078-0.338 0.241-0.4 0.162-0.062 0.347-0.003 0.444 0.142l0.467 0.692c0.055 0.081 0.107 0.166 0.159 0.252 0.097 0.159 0.188 0.309 0.294 0.412 0.225 0.214 0.445 0.435 0.666 0.655 0.638 0.638 1.241 1.241 1.952 1.724 0.038 0.027 0.077 0.053 0.114 0.080-0.579-1.557-0.225-3.421 0.118-5.225l0.055-0.293c0.032-0.171 0.178-0.298 0.352-0.306 0.177-0.011 0.331 0.105 0.379 0.272l0.23 0.802c0.028 0.095 0.051 0.193 0.074 0.29 0.043 0.18 0.083 0.352 0.153 0.482 0.147 0.274 0.29 0.551 0.431 0.83 0.41 0.803 0.797 1.562 1.323 2.242 0.029 0.036 0.057 0.073 0.084 0.11-0.068-1.66 0.845-3.323 1.728-4.932l0.142-0.259c0.083-0.153 0.254-0.23 0.43-0.182 0.167 0.046 0.283 0.201 0.276 0.375l-0.029 0.834c-0.003 0.099-0.012 0.198-0.020 0.298-0.016 0.186-0.031 0.361-0.003 0.507 0.055 0.307 0.105 0.618 0.155 0.927 0.141 0.89 0.274 1.729 0.564 2.537 0.016 0.043 0.031 0.086 0.046 0.13 0.448-1.6 1.831-2.9 3.168-4.157l0.215-0.203c0.128-0.119 0.32-0.135 0.465-0.041 0.145 0.096 0.206 0.278 0.147 0.442l-0.284 0.785c-0.033 0.093-0.073 0.186-0.111 0.278-0.071 0.172-0.14 0.333-0.16 0.48-0.042 0.309-0.091 0.619-0.14 0.928-0.141 0.89-0.273 1.729-0.246 2.588 0.002 0.046 0.003 0.093 0.003 0.139 0.919-1.383 2.637-2.192 4.298-2.975l0.269-0.127c0.157-0.074 0.345-0.032 0.454 0.106 0.109 0.135 0.11 0.329 0.002 0.466l-0.512 0.657c-0.062 0.079-0.126 0.154-0.191 0.228-0.123 0.141-0.238 0.274-0.302 0.409-0.135 0.281-0.276 0.558-0.418 0.836-0.41 0.804-0.796 1.563-1.036 2.388-0.013 0.044-0.027 0.089-0.039 0.132 1.302-1.030 3.184-1.269 5.004-1.501l0.295-0.037c0.186-0.022 0.339 0.078 0.4 0.24 0.062 0.163 0.003 0.347-0.141 0.445l-0.691 0.467c-0.082 0.055-0.167 0.107-0.253 0.159-0.16 0.097-0.309 0.188-0.412 0.294-0.215 0.225-0.434 0.444-0.654 0.663-0.639 0.639-1.243 1.243-1.727 1.955-0.027 0.039-0.054 0.078-0.083 0.115 0 0 0.001 0 0.002-0.001 1.557-0.579 3.422-0.225 5.225 0.118l0.294 0.057c0.171 0.032 0.297 0.178 0.305 0.352s-0.105 0.331-0.272 0.379l-0.802 0.23c-0.096 0.028-0.192 0.051-0.29 0.074-0.181 0.043-0.353 0.082-0.483 0.153-0.275 0.148-0.553 0.29-0.831 0.432-0.803 0.41-1.562 0.796-2.24 1.323-0.036 0.029-0.075 0.057-0.111 0.084 1.658-0.068 3.324 0.844 4.932 1.728l0.26 0.143c0.154 0.084 0.228 0.261 0.182 0.43s-0.203 0.257-0.375 0.276l-0.834-0.029c-0.098-0.003-0.198-0.012-0.298-0.020-0.186-0.016-0.364-0.031-0.507-0.003-0.307 0.055-0.618 0.105-0.928 0.155-0.889 0.141-1.728 0.274-2.537 0.564v0c-0.043 0.016-0.087 0.031-0.131 0.045 1.6 0.448 2.9 1.83 4.157 3.167l0.205 0.218c0.119 0.127 0.137 0.319 0.041 0.464-0.096 0.147-0.282 0.21-0.442 0.148l-0.788-0.286c-0.092-0.033-0.185-0.073-0.278-0.111-0.171-0.071-0.333-0.14-0.478-0.16-0.309-0.042-0.619-0.091-0.929-0.14-0.89-0.141-1.73-0.271-2.589-0.246-0.046 0.002-0.094 0.003-0.14 0.002v0c1.385 0.919 2.193 2.636 2.975 4.297l0.128 0.271c0.075 0.158 0.031 0.346-0.105 0.454-0.138 0.108-0.331 0.11-0.467 0.002l-0.657-0.512c-0.079-0.062-0.154-0.126-0.228-0.191-0.141-0.122-0.275-0.238-0.41-0.302-0.281-0.135-0.557-0.276-0.835-0.418-0.804-0.41-1.564-0.796-2.389-1.036-0.045-0.014-0.090-0.028-0.133-0.042 1.033 1.303 1.271 3.188 1.503 5.011l0.036 0.29c0.023 0.173-0.077 0.339-0.239 0.4-0.166 0.063-0.349 0.003-0.445-0.141l-0.467-0.691c-0.055-0.082-0.107-0.167-0.16-0.253-0.097-0.16-0.188-0.309-0.293-0.413-0.225-0.214-0.444-0.433-0.663-0.653-0.639-0.639-1.243-1.243-1.956-1.727-0.039-0.027-0.078-0.055-0.115-0.085 0.001 0.001 0.001 0.002 0.002 0.004 0.579 1.559 0.225 3.425-0.119 5.23l-0.054 0.29c-0.032 0.17-0.177 0.297-0.352 0.305-0.163 0.010-0.331-0.102-0.379-0.271l-0.231-0.803c-0.028-0.096-0.050-0.192-0.073-0.29-0.043-0.181-0.083-0.353-0.153-0.483-0.149-0.275-0.291-0.555-0.434-0.834-0.41-0.802-0.796-1.559-1.321-2.237-0.029-0.037-0.057-0.075-0.084-0.111 0.069 1.661-0.845 3.325-1.729 4.934l-0.142 0.258c-0.061 0.123-0.189 0.195-0.323 0.195zM13.554 25.034c0.030 0 0.060 0.004 0.089 0.013l0.231 0.059c0.129 0.035 0.23 0.139 0.265 0.269 0.067 0.258 0.141 0.515 0.233 0.77 0.315 0.876 0.46 1.792 0.601 2.677 0.048 0.302 0.096 0.605 0.15 0.906 0.011 0.061 0.018 0.122 0.022 0.182 0.601-1.166 1.056-2.286 1.010-3.38-0.009-0.198 0.003-0.397 0.016-0.597l0.009-0.148c0.011-0.196 0.172-0.352 0.368-0.354 0.084-0.002 0.167-0.007 0.251-0.013 0.138 0.001 0.318 0.053 0.391 0.164 0.132 0.202 0.256 0.389 0.395 0.569 0.569 0.734 0.99 1.558 1.396 2.355 0.14 0.275 0.279 0.548 0.425 0.819 0.031 0.054 0.055 0.11 0.078 0.165 0.211-1.294 0.298-2.5-0.083-3.525-0.057-0.153-0.098-0.31-0.14-0.47l-0.043-0.162c-0.052-0.189 0.049-0.387 0.235-0.453l0.119-0.043c0.086-0.030 0.172-0.059 0.256-0.095 0.124-0.050 0.269-0.033 0.375 0.050 0.074 0.058 0.143 0.119 0.211 0.181 0.074 0.066 0.145 0.132 0.226 0.189 0.772 0.525 1.429 1.182 2.065 1.817 0.215 0.215 0.43 0.431 0.651 0.641 0.045 0.043 0.086 0.089 0.125 0.134-0.199-1.296-0.49-2.471-1.169-3.327-0.089-0.111-0.165-0.233-0.243-0.354l-0.095-0.147c-0.109-0.162-0.075-0.382 0.079-0.503 0.102-0.081 0.202-0.166 0.3-0.253 0.101-0.092 0.244-0.118 0.373-0.073l0.149 0.054c0.123 0.045 0.244 0.091 0.371 0.127 0.892 0.259 1.718 0.679 2.518 1.087 0.273 0.139 0.546 0.278 0.82 0.411 0.057 0.028 0.109 0.057 0.161 0.090-0.59-1.171-1.229-2.199-2.139-2.802-0.117-0.078-0.225-0.166-0.334-0.256l-0.133-0.108c-0.154-0.119-0.189-0.336-0.085-0.498 0.071-0.112 0.141-0.227 0.208-0.343 0.070-0.119 0.203-0.186 0.338-0.187l0.129 0.004c0.135 0.005 0.272 0.011 0.409 0.007 0.931-0.032 1.845 0.116 2.731 0.255 0.304 0.048 0.608 0.097 0.912 0.138 0.062 0.009 0.122 0.020 0.179 0.034-0.923-0.931-1.847-1.71-2.9-2.005-0.146-0.039-0.289-0.096-0.431-0.151l-0.157-0.061c-0.179-0.067-0.281-0.258-0.234-0.445l0.037-0.142c0.021-0.076 0.042-0.153 0.058-0.229 0.029-0.137 0.13-0.245 0.265-0.285l0.127-0.036c0.139-0.038 0.277-0.078 0.415-0.127 0.874-0.315 1.788-0.46 2.672-0.601 0.304-0.048 0.61-0.097 0.912-0.151 0.061-0.011 0.122-0.018 0.182-0.022-1.166-0.601-2.282-1.053-3.38-1.010-0.175 0.006-0.351-0.002-0.529-0.014l-0.161-0.010c-0.189-0.010-0.341-0.158-0.355-0.346-0.010-0.112-0.018-0.224-0.032-0.334-0.017-0.141 0.047-0.278 0.164-0.357 0.222-0.147 0.38-0.252 0.532-0.37 0.736-0.57 1.562-0.991 2.359-1.398 0.274-0.14 0.547-0.278 0.816-0.423 0.054-0.030 0.11-0.055 0.165-0.078-1.295-0.21-2.501-0.298-3.525 0.083-0.204 0.076-0.416 0.13-0.627 0.185l-0.123 0.032c-0.181 0.044-0.367-0.045-0.441-0.217-0.022-0.054-0.048-0.106-0.075-0.158l-0.062-0.126c-0.061-0.13-0.042-0.284 0.048-0.396 0.067-0.082 0.137-0.16 0.207-0.238 0.095-0.105 0.189-0.207 0.269-0.325 0.526-0.772 1.183-1.429 1.818-2.064 0.215-0.215 0.431-0.431 0.641-0.651 0.043-0.045 0.087-0.086 0.133-0.125-1.296 0.199-2.47 0.489-3.326 1.168-0.237 0.188-0.496 0.351-0.756 0.511-0.159 0.094-0.359 0.065-0.481-0.073l-0.127-0.14c-0.099-0.107-0.128-0.261-0.075-0.397 0.109-0.271 0.207-0.548 0.29-0.834 0.259-0.894 0.679-1.721 1.087-2.519 0.139-0.273 0.278-0.546 0.411-0.821 0.028-0.055 0.057-0.109 0.090-0.16-1.171 0.59-2.198 1.229-2.802 2.139-0.171 0.257-0.374 0.516-0.64 0.819-0.118 0.135-0.316 0.167-0.473 0.076-0.125-0.073-0.308-0.279-0.297-0.423 0.028-0.331 0.038-0.665 0.029-1.004-0.030-0.93 0.115-1.844 0.255-2.73 0.048-0.304 0.097-0.608 0.138-0.912 0.009-0.062 0.020-0.122 0.034-0.179-0.931 0.923-1.71 1.847-2.005 2.901-0.099 0.359-0.233 0.725-0.396 1.088-0.074 0.162-0.25 0.253-0.421 0.213-0.144-0.031-0.321-0.159-0.354-0.302-0.094-0.416-0.191-0.759-0.305-1.079-0.315-0.875-0.461-1.789-0.601-2.673-0.048-0.304-0.097-0.608-0.151-0.911-0.011-0.061-0.018-0.122-0.022-0.181-0.601 1.166-1.056 2.286-1.010 3.379 0.017 0.39-0.002 0.803-0.057 1.258-0.019 0.161-0.14 0.29-0.298 0.323s-0.32-0.039-0.401-0.18c-0.236-0.409-0.45-0.733-0.674-1.022-0.571-0.736-0.992-1.562-1.399-2.361-0.139-0.273-0.278-0.546-0.422-0.815-0.030-0.055-0.055-0.11-0.078-0.165-0.211 1.294-0.298 2.5 0.083 3.525 0.139 0.373 0.251 0.787 0.341 1.265 0.031 0.159-0.044 0.319-0.186 0.398-0.141 0.080-0.317 0.061-0.436-0.049l-0.142-0.129c-0.272-0.249-0.529-0.483-0.82-0.682-0.767-0.522-1.423-1.178-2.058-1.811-0.217-0.218-0.433-0.433-0.653-0.644-0.045-0.043-0.086-0.087-0.125-0.133 0.198 1.296 0.489 2.47 1.168 3.327 0.243 0.306 0.469 0.65 0.693 1.051 0.079 0.141 0.059 0.318-0.051 0.436-0.108 0.119-0.282 0.156-0.43 0.091-0.431-0.192-0.796-0.327-1.146-0.43-0.895-0.259-1.722-0.681-2.523-1.088-0.272-0.139-0.545-0.277-0.819-0.41-0.057-0.027-0.109-0.057-0.16-0.089 0.59 1.171 1.229 2.198 2.139 2.803 0.329 0.219 0.651 0.476 0.985 0.786 0.118 0.11 0.154 0.284 0.086 0.431s-0.224 0.235-0.382 0.219c-0.465-0.049-0.853-0.067-1.221-0.057-0.93 0.032-1.847-0.116-2.735-0.256-0.302-0.048-0.604-0.096-0.906-0.137-0.062-0.007-0.122-0.020-0.179-0.034 0.923 0.931 1.847 1.711 2.901 2.005 0.377 0.105 0.763 0.25 1.179 0.443 0.147 0.068 0.234 0.223 0.215 0.384s-0.137 0.292-0.294 0.325c-0.463 0.098-0.837 0.202-1.18 0.325-0.877 0.316-1.793 0.461-2.679 0.602-0.302 0.048-0.605 0.096-0.905 0.15-0.061 0.011-0.122 0.018-0.181 0.022 1.165 0.599 2.273 1.054 3.379 1.010 0.39-0.019 0.8 0.001 1.258 0.057 0.161 0.019 0.291 0.139 0.323 0.298s-0.039 0.32-0.18 0.401c-0.407 0.237-0.733 0.451-1.021 0.674-0.735 0.57-1.561 0.991-2.358 1.397-0.274 0.141-0.547 0.281-0.818 0.425-0.054 0.031-0.11 0.055-0.165 0.078 1.294 0.211 2.502 0.298 3.525-0.083 0.367-0.138 0.753-0.244 1.181-0.331 0.187-0.030 0.365 0.067 0.427 0.241 0.047 0.13 0.041 0.334-0.051 0.436l-0.175 0.195c-0.211 0.233-0.411 0.452-0.578 0.7-0.524 0.77-1.18 1.426-1.814 2.061-0.217 0.217-0.433 0.433-0.644 0.654-0.043 0.045-0.089 0.086-0.134 0.125 1.296-0.199 2.471-0.489 3.328-1.169 0.273-0.218 0.575-0.42 0.921-0.621 0.164-0.097 0.375-0.052 0.49 0.099 0.081 0.107 0.155 0.324 0.102 0.448-0.158 0.372-0.274 0.692-0.365 1.006-0.26 0.895-0.682 1.723-1.089 2.523-0.139 0.273-0.277 0.545-0.41 0.819-0.027 0.055-0.057 0.108-0.089 0.16 1.171-0.59 2.198-1.229 2.803-2.139 0.192-0.29 0.413-0.554 0.603-0.773 0.128-0.147 0.348-0.171 0.503-0.059 0.107 0.077 0.302 0.304 0.292 0.434-0.022 0.307-0.029 0.617-0.019 0.93 0.030 0.931-0.115 1.847-0.256 2.736-0.048 0.301-0.096 0.604-0.137 0.906-0.007 0.062-0.020 0.122-0.034 0.179 0.931-0.923 1.711-1.847 2.005-2.9 0.071-0.258 0.172-0.507 0.273-0.756 0.062-0.154 0.225-0.274 0.387-0.274zM26.27 17.983v0z"></path>
<path fill="#ffca00" style="fill: var(--color6, #ffca00)" d="M13.554 25.034c0.030 0 0.060 0.004 0.089 0.013l0.231 0.059c0.129 0.035 0.23 0.139 0.265 0.269 0.067 0.258 0.141 0.515 0.233 0.77 0.315 0.876 0.46 1.792 0.601 2.677 0.048 0.302 0.096 0.605 0.15 0.906 0.011 0.061 0.018 0.122 0.022 0.182 0.601-1.166 1.056-2.286 1.010-3.38-0.009-0.198 0.003-0.397 0.016-0.597l0.009-0.148c0.011-0.196 0.172-0.352 0.368-0.354 0.084-0.002 0.167-0.007 0.251-0.013 0.138 0.001 0.318 0.053 0.391 0.164 0.132 0.202 0.256 0.389 0.395 0.569 0.569 0.734 0.99 1.558 1.396 2.355 0.14 0.275 0.279 0.548 0.425 0.819 0.031 0.054 0.055 0.11 0.078 0.165 0.211-1.294 0.298-2.5-0.083-3.525-0.057-0.153-0.098-0.31-0.14-0.47l-0.043-0.162c-0.052-0.189 0.049-0.387 0.235-0.453l0.119-0.043c0.086-0.030 0.172-0.059 0.256-0.095 0.124-0.050 0.269-0.033 0.375 0.050 0.074 0.058 0.143 0.119 0.211 0.181 0.074 0.066 0.145 0.132 0.226 0.189 0.772 0.525 1.429 1.182 2.065 1.817 0.215 0.215 0.43 0.431 0.651 0.641 0.045 0.043 0.086 0.089 0.125 0.134-0.199-1.296-0.49-2.471-1.169-3.327-0.089-0.111-0.165-0.233-0.243-0.354l-0.095-0.147c-0.109-0.162-0.075-0.382 0.079-0.503 0.102-0.081 0.202-0.166 0.3-0.253 0.101-0.092 0.244-0.118 0.373-0.073l0.149 0.054c0.123 0.045 0.244 0.091 0.371 0.127 0.892 0.259 1.718 0.679 2.518 1.087 0.273 0.139 0.546 0.278 0.82 0.411 0.057 0.028 0.109 0.057 0.161 0.090-0.59-1.171-1.229-2.199-2.139-2.802-0.117-0.078-0.225-0.166-0.334-0.256l-0.133-0.108c-0.154-0.119-0.189-0.336-0.085-0.498 0.071-0.112 0.141-0.227 0.208-0.343 0.070-0.119 0.203-0.186 0.338-0.187l0.129 0.004c0.135 0.005 0.272 0.011 0.409 0.007 0.931-0.032 1.845 0.116 2.731 0.255 0.304 0.048 0.608 0.097 0.912 0.138 0.062 0.009 0.122 0.020 0.179 0.034-0.923-0.931-1.847-1.71-2.9-2.005-0.146-0.039-0.289-0.096-0.431-0.151l-0.157-0.061c-0.179-0.067-0.281-0.258-0.234-0.445l0.037-0.142c0.021-0.076 0.042-0.153 0.058-0.229 0.029-0.137 0.13-0.245 0.265-0.285l0.127-0.036c0.139-0.038 0.277-0.078 0.415-0.127 0.874-0.315 1.788-0.46 2.672-0.601 0.304-0.048 0.61-0.097 0.912-0.151 0.061-0.011 0.122-0.018 0.182-0.022-1.166-0.601-2.282-1.053-3.38-1.010-0.175 0.006-0.351-0.002-0.529-0.014l-0.161-0.010c-0.189-0.010-0.341-0.158-0.355-0.346-0.010-0.112-0.018-0.224-0.032-0.334-0.017-0.141 0.047-0.278 0.164-0.357 0.222-0.147 0.38-0.252 0.532-0.37 0.736-0.57 1.562-0.991 2.359-1.398 0.274-0.14 0.547-0.278 0.816-0.423 0.054-0.030 0.11-0.055 0.165-0.078-1.295-0.21-2.501-0.298-3.525 0.083-0.204 0.076-0.416 0.13-0.627 0.185l-0.123 0.032c-0.181 0.044-0.367-0.045-0.441-0.217-0.022-0.054-0.048-0.106-0.075-0.158l-0.062-0.126c-0.061-0.13-0.042-0.284 0.048-0.396 0.067-0.082 0.137-0.16 0.207-0.238 0.095-0.105 0.189-0.207 0.269-0.325 0.526-0.772 1.183-1.429 1.818-2.064 0.215-0.215 0.431-0.431 0.641-0.651 0.043-0.045 0.087-0.086 0.133-0.125-1.296 0.199-2.47 0.489-3.326 1.168-0.237 0.188-0.496 0.351-0.756 0.511-0.159 0.094-0.359 0.065-0.481-0.073l-0.127-0.14c-0.099-0.107-0.128-0.261-0.075-0.397 0.109-0.271 0.207-0.548 0.29-0.834 0.259-0.894 0.679-1.721 1.087-2.519 0.139-0.273 0.278-0.546 0.411-0.821 0.028-0.055 0.057-0.109 0.090-0.16-1.171 0.59-2.198 1.229-2.802 2.139-0.171 0.257-0.374 0.516-0.64 0.819-0.118 0.135-0.316 0.167-0.473 0.076-0.125-0.073-0.308-0.279-0.297-0.423 0.028-0.331 0.038-0.665 0.029-1.004-0.030-0.93 0.115-1.844 0.255-2.73 0.048-0.304 0.097-0.608 0.138-0.912 0.009-0.062 0.020-0.122 0.034-0.179-0.931 0.923-1.71 1.847-2.005 2.901-0.099 0.359-0.233 0.725-0.396 1.088-0.074 0.162-0.25 0.253-0.421 0.213-0.144-0.031-0.321-0.159-0.354-0.302-0.094-0.416-0.191-0.759-0.305-1.079-0.315-0.875-0.461-1.789-0.601-2.673-0.048-0.304-0.097-0.608-0.151-0.911-0.011-0.061-0.018-0.122-0.022-0.181-0.601 1.166-1.056 2.286-1.010 3.379 0.017 0.39-0.002 0.803-0.057 1.258-0.019 0.161-0.14 0.29-0.298 0.323s-0.32-0.039-0.401-0.18c-0.236-0.409-0.45-0.733-0.674-1.022-0.571-0.736-0.992-1.562-1.399-2.361-0.139-0.273-0.278-0.546-0.422-0.815-0.030-0.055-0.055-0.11-0.078-0.165-0.211 1.294-0.298 2.5 0.083 3.525 0.139 0.373 0.251 0.787 0.341 1.265 0.031 0.159-0.044 0.319-0.186 0.398-0.141 0.080-0.317 0.061-0.436-0.049l-0.142-0.129c-0.272-0.249-0.529-0.483-0.82-0.682-0.767-0.522-1.423-1.178-2.058-1.812-0.217-0.217-0.433-0.432-0.653-0.643-0.046-0.043-0.087-0.087-0.126-0.134 0.199 1.296 0.49 2.471 1.169 3.328 0.243 0.306 0.469 0.65 0.693 1.051 0.079 0.141 0.059 0.318-0.051 0.436-0.108 0.119-0.282 0.156-0.43 0.091-0.431-0.192-0.796-0.327-1.146-0.43-0.895-0.26-1.722-0.681-2.523-1.089-0.272-0.139-0.545-0.277-0.819-0.41-0.057-0.027-0.109-0.057-0.16-0.089 0.59 1.171 1.229 2.198 2.139 2.803 0.329 0.219 0.651 0.476 0.985 0.786 0.118 0.11 0.154 0.284 0.086 0.431s-0.224 0.235-0.382 0.219c-0.467-0.048-0.854-0.066-1.222-0.055-0.93 0.032-1.847-0.116-2.735-0.256-0.302-0.048-0.604-0.096-0.906-0.137-0.062-0.007-0.122-0.020-0.179-0.034 0.923 0.931 1.847 1.711 2.901 2.005 0.377 0.105 0.763 0.25 1.179 0.443 0.147 0.068 0.234 0.223 0.215 0.384s-0.137 0.292-0.294 0.325c-0.463 0.098-0.837 0.202-1.18 0.325-0.877 0.316-1.793 0.461-2.679 0.602-0.302 0.048-0.605 0.096-0.905 0.15-0.061 0.011-0.122 0.018-0.181 0.022 1.165 0.599 2.273 1.054 3.379 1.010 0.39-0.019 0.8 0.001 1.258 0.057 0.161 0.019 0.291 0.139 0.323 0.298s-0.039 0.32-0.18 0.401c-0.407 0.237-0.733 0.451-1.021 0.674-0.735 0.57-1.561 0.991-2.358 1.397-0.274 0.141-0.547 0.281-0.818 0.425-0.054 0.031-0.11 0.055-0.165 0.078 1.294 0.211 2.502 0.298 3.525-0.083 0.367-0.138 0.753-0.244 1.181-0.331 0.187-0.030 0.365 0.067 0.427 0.241 0.047 0.13 0.041 0.334-0.051 0.436l-0.175 0.195c-0.211 0.233-0.411 0.452-0.578 0.7-0.524 0.77-1.18 1.426-1.814 2.061-0.215 0.217-0.432 0.433-0.643 0.654-0.043 0.045-0.089 0.086-0.134 0.125 1.296-0.199 2.471-0.489 3.328-1.169 0.273-0.218 0.575-0.42 0.921-0.621 0.164-0.097 0.375-0.052 0.49 0.099 0.081 0.107 0.155 0.324 0.102 0.448-0.158 0.372-0.274 0.692-0.365 1.006-0.26 0.895-0.682 1.723-1.089 2.523-0.139 0.273-0.277 0.545-0.41 0.819-0.027 0.055-0.057 0.108-0.089 0.16 1.171-0.59 2.198-1.229 2.803-2.139 0.192-0.29 0.413-0.554 0.603-0.773 0.128-0.147 0.348-0.171 0.503-0.059 0.107 0.077 0.302 0.304 0.292 0.434-0.022 0.307-0.029 0.617-0.019 0.93 0.030 0.931-0.115 1.847-0.256 2.736-0.048 0.301-0.096 0.604-0.137 0.906-0.007 0.062-0.020 0.122-0.034 0.179 0.931-0.923 1.711-1.847 2.005-2.9 0.071-0.258 0.172-0.507 0.273-0.756 0.062-0.154 0.225-0.274 0.387-0.274z"></path>
<path fill="#f9e52f" style="fill: var(--color7, #f9e52f)" opacity="0.53" d="M23.777 16.001c0 4.295-3.482 7.777-7.777 7.777s-7.777-3.482-7.777-7.777c0-4.295 3.482-7.777 7.777-7.777s7.777 3.482 7.777 7.777z"></path>
<path fill="#f5a800" style="fill: var(--color8, #f5a800)" opacity="0.61" d="M22.447 16.001c0 3.561-2.886 6.447-6.447 6.447s-6.447-2.886-6.447-6.447c0-3.561 2.886-6.447 6.447-6.447s6.447 2.886 6.447 6.447z"></path>
<path fill="#000" style="fill: var(--color5, #000)" d="M15.999 24.624c-4.755 0-8.623-3.869-8.623-8.624s3.868-8.623 8.623-8.623c4.755 0 8.624 3.868 8.624 8.623s-3.869 8.624-8.624 8.624zM15.999 8.237c-4.282 0-7.763 3.483-7.763 7.763s3.483 7.763 7.763 7.763 7.763-3.483 7.763-7.763-3.482-7.763-7.763-7.763z"></path>
<path fill="#000" style="fill: var(--color5, #000)" d="M22.31 16.203c-0.208 0-0.375-0.169-0.375-0.377 0-3.221-2.621-5.842-5.843-5.842-0.208 0-0.377-0.169-0.377-0.377s0.169-0.377 0.377-0.377c3.636 0 6.594 2.959 6.594 6.595 0 0.208-0.169 0.377-0.375 0.377z"></path>
<path fill="#fbe68f" style="fill: var(--color9, #fbe68f)" opacity="0.63" d="M18.712 12.919c0.358 1.548-1.138 3.215-3.341 3.724s-4.279-0.333-4.636-1.881c-0.358-1.548 1.138-3.215 3.341-3.724s4.279 0.333 4.636 1.881z"></path>
</symbol>
<symbol id="icon-close" viewBox="0 0 32 32">
<path stroke-linejoin="round" stroke-linecap="round" stroke-miterlimit="4" stroke-width="2" d="M7 7l18 18"></path>
<path stroke-linejoin="round" stroke-linecap="round" stroke-miterlimit="4" stroke-width="2" d="M7 25l18-18"></path>
</symbol>
<symbol id="cloudy" viewBox="0 0 32 32">
<path fill="#aabfd0" style="fill: var(--color10, #aabfd0)" d="M16.46 5.628c-2.775 0.151-4.968 1.311-5.933 1.884-0.815-0.976-1.984-1.654-3.353-1.654-2.45 0-4.446 1.993-4.446 4.443 0 1.144 0.623 2.062 1.326 2.851-0.548 0.167-1.12 0.327-1.581 0.822-0.598 0.642-1.004 1.611-1.079 2.952-0.002 0.018-0.161 1.14 0.446 2.291 0.612 1.16 2.041 2.293 4.846 2.319 0.014 0.001 1.411 0.055 3.537 0.070 0.007 0 0.016 0.001 0.024 0.001s0.017-0 0.026-0.001l-0.001 0 17.843-1.751c0.055-0.005 0.106-0.018 0.153-0.040l-0.003 0.001c0.738-0.336 1.585-0.944 2.037-2.002s0.48-2.515-0.247-4.46c-0.006-0.016-0.012-0.029-0.019-0.041l0.001 0.003c0 0-0.393-0.822-1.198-1.549-0.742-0.67-1.929-1.2-3.398-1.010-2.633-4.16-6.061-5.287-8.982-5.128z"></path>
<path fill="#7d8e9e" style="fill: var(--color11, #7d8e9e)" d="M20.843 13.071c-1.665 0-2.947 0.8-3.997 1.821-0.761-0.624-1.67-1.080-2.778-1.080-2.696 0-4.915 2.22-4.915 4.916 0 0.235 0.118 0.278 0.157 0.48-0.046 0.029-0.063 0.010-0.109 0.042-0.73 0.52-1.36 1.304-1.788 2.306 0.598 0.017 1.475 0.039 2.812 0.048 0.007 0 0.016 0.001 0.024 0.001s0.017-0 0.026-0.001l-0.001 0 17.843-1.751c0.055-0.005 0.106-0.019 0.152-0.040l-0.003 0.001c0.616-0.28 1.305-0.755 1.78-1.518-0.232-0.235-0.504-0.474-0.825-0.69-0.925-0.622-2.104-0.695-3.325-0.519-0.86-2.209-2.574-4.017-5.052-4.017z"></path>
<path fill="#d0e2ed" style="fill: var(--color12, #d0e2ed)" d="M20.843 14.715c-1.894 0-3.284 1.15-4.004 2.653-0.537-1.077-1.493-1.911-2.771-1.911-1.802 0-3.273 1.47-3.273 3.273 0 0.549 0.276 1.004 0.526 1.462-0.38 0.078-0.754 0.107-1.166 0.4-0.606 0.431-1.16 1.16-1.466 2.28-0.004 0.018-0.008 0.039-0.010 0.061l-0 0.002c0 0-0.124 0.85 0.341 1.706s1.554 1.674 3.603 1.692c0.012 0 2.401 0.096 5.403 0.031 2.988-0.065 6.55-0.286 9.031-0.937 0.019-0.001 1.036-0.067 1.894-0.756 0.433-0.348 0.822-0.873 0.971-1.588s0.064-1.595-0.352-2.677c-0.006-0.016-0.012-0.029-0.019-0.041l0.001 0.003c0 0-0.399-0.821-1.253-1.396-0.74-0.498-1.921-0.631-3.287-0.091-0.163-2.302-1.964-4.167-4.171-4.167z"></path>
<path fill="#7d8e9e" style="fill: var(--color11, #7d8e9e)" d="M17.014 5.613c-0.186-0.001-0.371 0.005-0.554 0.015-2.775 0.151-4.968 1.31-5.933 1.883-0.815-0.976-1.983-1.654-3.352-1.654-2.057 0-3.789 1.407-4.294 3.307 2.574-1.89 5.719-1.594 8.11 0.797 0.175 0.175 3.419-3.374 8.311-1.622 5.773 2.068 3.428 4.747 7.635 4.392 1.207-0.102 2.529 2.853 3.651 3.95 0.103-0.902-0.036-1.999-0.532-3.328-0.006-0.016-0.012-0.028-0.019-0.040l0.001 0.003c0 0-0.392-0.822-1.198-1.549-0.742-0.67-1.929-1.2-3.398-1.010-2.468-3.9-5.635-5.135-8.429-5.143z"></path>
</symbol>
<symbol id="partly-cloudy-day" viewBox="0 0 32 32">
<path fill="#ed7425" style="fill: var(--color13, #ed7425)" d="M15.225 2.285c-0.001 0-0.001 0-0.002 0-0.282 0-0.511 0.229-0.511 0.511 0 0.001 0 0.001 0 0.002v-0 3.065c0.001 0.281 0.229 0.509 0.511 0.509 0.001 0 0.001 0 0.002 0h-0c0.281-0.001 0.508-0.228 0.509-0.509v-3.065c0-0.001 0-0.001 0-0.002 0-0.281-0.228-0.51-0.509-0.511h-0z"></path>
<path fill="#ed7425" style="fill: var(--color13, #ed7425)" d="M22.916 4.378c-0.006-0-0.012-0-0.019-0-0.187 0-0.351 0.101-0.44 0.251l-0.001 0.002-1.531 2.654c-0.043 0.073-0.069 0.162-0.069 0.256 0 0.187 0.101 0.351 0.251 0.44l0.002 0.001c0.073 0.043 0.162 0.069 0.256 0.069 0.187 0 0.351-0.101 0.44-0.251l0.001-0.002 1.535-2.654c0.043-0.073 0.068-0.161 0.068-0.255 0-0.189-0.102-0.353-0.254-0.442l-0.002-0.001c-0.068-0.040-0.15-0.065-0.237-0.068l-0.001-0z"></path>
<path fill="#ed7425" style="fill: var(--color13, #ed7425)" d="M7.48 4.318c-0.076 0.007-0.145 0.030-0.206 0.065l0.002-0.001c-0.154 0.090-0.256 0.254-0.256 0.443 0 0.094 0.025 0.181 0.069 0.257l-0.001-0.002 1.535 2.654c0.090 0.154 0.254 0.256 0.443 0.256 0.094 0 0.182-0.025 0.257-0.069l-0.002 0.001c0.153-0.090 0.254-0.254 0.254-0.441 0-0.094-0.026-0.183-0.070-0.259l0.001 0.002-1.531-2.654c-0.090-0.154-0.254-0.255-0.442-0.255-0.018 0-0.036 0.001-0.054 0.003l0.002-0z"></path>
<path fill="#ed7425" style="fill: var(--color13, #ed7425)" d="M1.9 9.917c-0.004-0-0.009-0-0.013-0-0.189 0-0.353 0.102-0.442 0.254l-0.001 0.002c-0.043 0.073-0.069 0.162-0.069 0.256 0 0.187 0.101 0.351 0.251 0.44l0.002 0.001 2.654 1.531c0.073 0.043 0.162 0.069 0.256 0.069 0.187 0 0.351-0.101 0.44-0.251l0.001-0.002c0.043-0.073 0.068-0.161 0.068-0.255 0-0.188-0.102-0.353-0.254-0.442l-0.002-0.001-2.651-1.535c-0.069-0.041-0.152-0.066-0.241-0.068h-0.001z"></path>
<path fill="#ed7425" style="fill: var(--color13, #ed7425)" d="M25.359 7.511c-0.136 0.004-0.258 0.061-0.347 0.151l-1.082 1.082c-0.093 0.092-0.15 0.221-0.15 0.362s0.058 0.269 0.15 0.362l0 0c0.092 0.092 0.22 0.149 0.36 0.149s0.268-0.057 0.36-0.149l-0 0 1.086-1.082c0.093-0.092 0.15-0.221 0.15-0.362s-0.058-0.269-0.15-0.362l-0-0c-0.093-0.093-0.221-0.151-0.363-0.151-0.005 0-0.010 0-0.015 0l0.001-0z"></path>
<path fill="#ed7425" style="fill: var(--color13, #ed7425)" d="M18.889 3.797c-0.221 0.015-0.402 0.168-0.459 0.373l-0.001 0.004-0.396 1.478c-0.011 0.040-0.017 0.085-0.017 0.132 0 0.235 0.159 0.434 0.376 0.493l0.004 0.001c0.040 0.011 0.085 0.017 0.132 0.017 0.235 0 0.434-0.159 0.493-0.376l0.001-0.004 0.396-1.478c0.011-0.040 0.017-0.085 0.017-0.132 0-0.235-0.159-0.434-0.376-0.493l-0.004-0.001c-0.039-0.011-0.084-0.017-0.13-0.017-0.013 0-0.025 0-0.038 0.001l0.002-0z"></path>
<path fill="#ed7425" style="fill: var(--color13, #ed7425)" d="M11.507 3.797c-0.047 0.001-0.093 0.008-0.136 0.020l0.004-0.001c-0.22 0.060-0.378 0.258-0.378 0.493 0 0.046 0.006 0.090 0.017 0.132l-0.001-0.004 0.396 1.482c0.060 0.22 0.258 0.379 0.494 0.379 0.047 0 0.093-0.006 0.136-0.018l-0.004 0.001c0.22-0.060 0.379-0.258 0.379-0.494 0-0.047-0.006-0.093-0.018-0.136l0.001 0.004-0.396-1.482c-0.061-0.219-0.258-0.377-0.493-0.377-0 0-0.001 0-0.001 0h0z"></path>
<path fill="#ed7425" style="fill: var(--color13, #ed7425)" d="M5.056 7.511c-0.136 0.004-0.258 0.061-0.347 0.151l-0 0c-0.093 0.093-0.15 0.221-0.15 0.362s0.058 0.269 0.15 0.362l0 0 1.086 1.082c0.092 0.092 0.22 0.149 0.36 0.149s0.268-0.057 0.36-0.149l-0 0c0.093-0.092 0.15-0.221 0.15-0.362s-0.058-0.269-0.15-0.362l-1.082-1.082c-0.093-0.093-0.221-0.151-0.363-0.151-0.005 0-0.010 0-0.015 0l0.001-0z"></path>
<path fill="#febe40" style="fill: var(--color14, #febe40)" d="M15.206 7.394c-4.772 0.010-8.645 3.89-8.645 8.608s3.874 8.594 8.645 8.604c3.097 0.006 5.823-1.613 7.36-4.053 0.040-0.063 0.067-0.139 0.075-0.22l0-0.002 0.701-7.16c0.002-0.016 0.003-0.034 0.003-0.053 0-0.065-0.012-0.127-0.034-0.184l0.001 0.004c-1.253-3.246-4.416-5.55-8.106-5.542z"></path>
<path fill="#ed7425" style="fill: var(--color13, #ed7425)" d="M15.225 25.628c-0.001 0-0.001 0-0.002 0-0.282 0-0.511 0.229-0.511 0.511 0 0.001 0 0.001 0 0.002v-0 3.062c0 0.001 0 0.001 0 0.002 0 0.282 0.229 0.511 0.511 0.511 0.001 0 0.001 0 0.002 0h-0c0.281-0.001 0.509-0.229 0.509-0.511 0-0.001 0-0.001 0-0.002v0-3.062c0-0.001 0-0.001 0-0.002 0-0.281-0.228-0.51-0.509-0.511h-0z"></path>
<path fill="#ed7425" style="fill: var(--color13, #ed7425)" d="M21.4 23.95c-0.010-0.001-0.022-0.001-0.034-0.001-0.094 0-0.183 0.026-0.259 0.070l0.002-0.001c-0.153 0.090-0.254 0.254-0.254 0.441 0 0.094 0.026 0.183 0.070 0.259l-0.001-0.002 1.531 2.654c0.090 0.154 0.254 0.257 0.443 0.257 0.094 0 0.181-0.025 0.257-0.069l-0.002 0.001c0.154-0.090 0.256-0.254 0.256-0.443 0-0.094-0.025-0.181-0.069-0.257l0.001 0.002-1.535-2.654c-0.084-0.145-0.233-0.244-0.406-0.256l-0.002-0z"></path>
<path fill="#ed7425" style="fill: var(--color13, #ed7425)" d="M9.079 24.010c-0.004-0-0.009-0-0.013-0-0.189 0-0.353 0.102-0.442 0.254l-0.001 0.002-1.535 2.654c-0.043 0.073-0.068 0.161-0.068 0.255 0 0.189 0.102 0.353 0.254 0.442l0.002 0.001c0.073 0.043 0.161 0.068 0.255 0.068 0.189 0 0.353-0.102 0.442-0.254l0.001-0.002 1.531-2.654c0.043-0.073 0.069-0.162 0.069-0.256 0-0.187-0.101-0.351-0.251-0.44l-0.002-0.001c-0.069-0.041-0.152-0.065-0.241-0.068h-0.001z"></path>
<path fill="#ed7425" style="fill: var(--color13, #ed7425)" d="M4.49 19.531c-0.077 0.008-0.148 0.032-0.21 0.069l0.002-0.001-2.654 1.531c-0.153 0.090-0.254 0.254-0.254 0.441 0 0.094 0.026 0.183 0.070 0.259l-0.001-0.002c0.090 0.154 0.254 0.256 0.443 0.256 0.094 0 0.182-0.025 0.257-0.069l-0.002 0.001 2.651-1.531c0.154-0.090 0.256-0.254 0.256-0.443 0-0.094-0.025-0.181-0.069-0.257l0.001 0.002c-0.090-0.155-0.255-0.258-0.444-0.258-0.016 0-0.032 0.001-0.048 0.002l0.002-0z"></path>
<path fill="#ed7425" style="fill: var(--color13, #ed7425)" d="M24.273 22.385c-0.134 0.004-0.255 0.060-0.343 0.147l0-0c-0.093 0.093-0.15 0.221-0.15 0.362s0.058 0.269 0.15 0.362l1.082 1.082c0.093 0.093 0.221 0.15 0.362 0.15s0.269-0.058 0.362-0.15l0-0c0.092-0.092 0.148-0.22 0.148-0.36s-0.057-0.268-0.149-0.36l-1.086-1.086c-0.092-0.091-0.219-0.147-0.359-0.147-0.006 0-0.013 0-0.019 0l0.001-0z"></path>
<path fill="#ed7425" style="fill: var(--color13, #ed7425)" d="M18.527 25.703c-0.047 0.001-0.093 0.008-0.136 0.020l0.004-0.001c-0.22 0.060-0.379 0.258-0.379 0.494 0 0.047 0.006 0.093 0.018 0.136l-0.001-0.004 0.396 1.478c0.060 0.22 0.258 0.379 0.494 0.379 0.047 0 0.093-0.006 0.136-0.018l-0.004 0.001c0.22-0.060 0.379-0.258 0.379-0.494 0-0.047-0.006-0.093-0.018-0.136l0.001 0.004-0.396-1.478c-0.060-0.221-0.258-0.381-0.494-0.381v0z"></path>
<path fill="#ed7425" style="fill: var(--color13, #ed7425)" d="M11.873 25.703c-0.223 0.013-0.406 0.167-0.463 0.373l-0.001 0.004-0.396 1.482c-0.011 0.040-0.017 0.085-0.017 0.132 0 0.235 0.159 0.434 0.376 0.493l0.004 0.001c0.040 0.011 0.085 0.017 0.132 0.017 0.235 0 0.434-0.159 0.493-0.376l0.001-0.004 0.396-1.482c0.011-0.040 0.017-0.085 0.017-0.132 0-0.235-0.159-0.434-0.376-0.493l-0.004-0.001c-0.039-0.011-0.083-0.017-0.129-0.017-0.012 0-0.023 0-0.035 0.001l0.002-0z"></path>
<path fill="#ed7425" style="fill: var(--color13, #ed7425)" d="M6.138 22.385c-0.134 0.004-0.255 0.060-0.343 0.147l-1.086 1.086c-0.092 0.092-0.149 0.22-0.149 0.36s0.057 0.268 0.149 0.36l-0-0c0.093 0.093 0.221 0.15 0.362 0.15s0.269-0.058 0.362-0.15l1.082-1.082c0.093-0.093 0.15-0.221 0.15-0.362s-0.058-0.269-0.15-0.362l-0-0c-0.092-0.091-0.219-0.147-0.359-0.147-0.006 0-0.013 0-0.019 0l0.001-0z"></path>
<path fill="#eda824" style="fill: var(--color15, #eda824)" d="M19.48 11.234c-2.145 0-3.909 1.764-3.909 3.909 0 0.125 0.050 0.227 0.062 0.348-0.003 0.002-0.004 0.001-0.007 0.003-0.738 0.531-1.339 1.39-1.645 2.512-0.001 0.003-0.004 0.015-0.007 0.026l-0.001 0.008c-0.015 0.060-0.025 0.121-0.033 0.183-0.002 0.008-0.175 1.083 0.414 2.169 0.619 1.142 2.031 2.012 3.99 2.029-0.062-0.003 1.114 0.027 2.598 0.029 0.627-0.551 1.177-1.187 1.623-1.896 0.040-0.063 0.068-0.139 0.076-0.22l0-0.002 0.701-7.161c0.002-0.015 0.003-0.033 0.003-0.052 0-0.065-0.012-0.128-0.035-0.185l0.001 0.003c-0.225-0.582-0.513-1.132-0.852-1.645-0.315 0.186-0.613 0.4-0.891 0.64-0.615-0.403-1.302-0.698-2.089-0.698z"></path>
<path fill="#d0e2ee" style="fill: var(--color16, #d0e2ee)" d="M23.995 12.352c-1.109 0-2.090 0.56-2.681 1.416-0.451-0.548-1.132-0.903-1.896-0.903-1.347 0-2.451 1.104-2.451 2.451 0 0.304 0.062 0.595 0.166 0.865-0.179 0.068-0.361 0.155-0.542 0.285-0.451 0.325-0.857 0.869-1.075 1.67-0.005 0.018-0.008 0.040-0.011 0.063l-0 0.002c0 0-0.096 0.647 0.256 1.297s1.191 1.254 2.655 1.267c0.013 0.001 1.666 0.067 3.748 0.022 2.066-0.045 4.516-0.197 6.266-0.651 0.020-0.001 0.762-0.046 1.407-0.563 0.326-0.262 0.627-0.664 0.739-1.202s0.044-1.185-0.252-1.957c-0.007-0.019-0.013-0.033-0.020-0.048l0.001 0.003c0 0-0.292-0.607-0.928-1.037-0.318-0.215-0.741-0.372-1.233-0.395v-0.001c-0.289-0.014-0.606 0.028-0.937 0.126-0.265-1.533-1.604-2.708-3.21-2.708z"></path>
<path fill="#ed7425" style="fill: var(--color13, #ed7425)" d="M2.454 15.466c-0.001 0-0.001 0-0.002 0-0.282 0-0.511 0.229-0.511 0.511 0 0.001 0 0.001 0 0.002v-0c0.001 0.281 0.229 0.509 0.511 0.509 0.001 0 0.001 0 0.002 0h1.5c0.001 0 0.001 0 0.002 0 0.281 0 0.51-0.228 0.511-0.509v-0c0-0.001 0-0.001 0-0.002 0-0.282-0.229-0.511-0.511-0.511-0.001 0-0.001 0-0.002 0h0z"></path>
</symbol>
<symbol id="icon-search" viewBox="0 0 32 32">
<path fill="#5c524c" style="fill: var(--color17, #5c524c)" d="M2.87 32c-0.766 0-1.487-0.298-2.029-0.84-0.543-0.543-0.841-1.264-0.841-2.031 0-0.766 0.298-1.487 0.841-2.030l5.802-5.802c0.542-0.542 1.263-0.841 2.029-0.841s1.487 0.299 2.030 0.84c1.119 1.12 1.118 2.942 0 4.060l-5.802 5.803c-0.543 0.542-1.264 0.84-2.030 0.84v0zM8.672 21.621c-0.456 0-0.884 0.177-1.206 0.5l-5.802 5.802c-0.323 0.323-0.5 0.751-0.5 1.207s0.177 0.885 0.5 1.208c0.644 0.644 1.768 0.644 2.414-0.001l5.802-5.802c0.665-0.665 0.665-1.748-0.001-2.414-0.322-0.323-0.751-0.5-1.207-0.5v0z"></path>
<path fill="#5c524c" style="fill: var(--color17, #5c524c)" d="M10.875 23.325c-0.051 0-0.102-0.007-0.152-0.020-0.201-0.055-0.358-0.212-0.411-0.414-0.079-0.303-0.225-0.563-0.433-0.772-0.207-0.206-0.466-0.351-0.771-0.432-0.201-0.053-0.358-0.21-0.413-0.411s0.003-0.416 0.151-0.562l1.861-1.861c0.116-0.117 0.276-0.18 0.44-0.17s0.318 0.086 0.422 0.214c0.459 0.56 0.975 1.077 1.536 1.535 0.127 0.105 0.205 0.258 0.213 0.422 0.008 0.165-0.053 0.324-0.17 0.441l-1.861 1.861c-0.11 0.11-0.259 0.17-0.411 0.17v0zM10.262 20.942c0.159 0.103 0.306 0.222 0.439 0.355 0.134 0.134 0.253 0.282 0.356 0.44l0.824-0.824c-0.277-0.252-0.543-0.518-0.795-0.795l-0.824 0.825z"></path>
<path fill="#5c524c" style="fill: var(--color17, #5c524c)" d="M19.976 24.048c-6.63 0-12.024-5.394-12.024-12.024s5.394-12.024 12.024-12.024 12.024 5.394 12.024 12.024c0 6.63-5.394 12.024-12.024 12.024v0zM19.976 1.164c-5.988 0-10.86 4.872-10.86 10.86s4.872 10.86 10.86 10.86c5.988 0 10.86-4.873 10.86-10.86s-4.872-10.86-10.86-10.86v0z"></path>
<path fill="#5c524c" style="fill: var(--color17, #5c524c)" d="M13.683 12.034c-0.322 0-0.582-0.26-0.582-0.582 0-4.107 3.34-7.448 7.447-7.448 0.322 0 0.582 0.26 0.582 0.582s-0.26 0.582-0.582 0.582c-3.464 0-6.283 2.819-6.283 6.284 0 0.322-0.26 0.582-0.582 0.582v0z"></path>
</symbol>
</defs>
</svg>
